<svg aria-hidden="true" style="position: absolute; width: 0; height: 0; overflow: hidden;" version="1.1" xmlns="http://www.w3.org/2000/svg" xmlns:xlink="http://www.w3.org/1999/xlink">
<defs>
<symbol id="icon-lock-closed" viewBox="0 0 24 24">
<path d="M17 10h-1v-2c0-2.205-1.794-4-4-4s-4 1.795-4 4v2h-1c-1.103 0-2 0.896-2 2v7c0 1.104 0.897 2 2 2h10c1.103 0 2-0.896 2-2v-7c0-1.104-0.897-2-2-2zM12 18.299c-0.719 0-1.3-0.58-1.3-1.299s0.581-1.301 1.3-1.301 1.3 0.582 1.3 1.301-0.581 1.299-1.3 1.299zM14 11h-4v-3c0-1.104 0.897-2 2-2s2 0.896 2 2v3z"></path>
</symbol>
<symbol id="icon-video" viewBox="0 0 24 24">
<path d="M22.525 7.149c-0.16-0.099-0.342-0.149-0.525-0.149-0.153 0-0.306 0.035-0.447 0.105l-2.553 1.277v-0.382c0-1.654-1.346-3-3-3h-11c-1.654 0-3 1.346-3 3v8c0 1.654 1.346 3 3 3h11c1.654 0 3-1.346 3-3v-0.382l2.553 1.276c0.141 0.071 0.294 0.106 0.447 0.106 0.183 0 0.365-0.050 0.525-0.149 0.295-0.183 0.475-0.504 0.475-0.851v-8c0-0.347-0.18-0.668-0.475-0.851zM7 13.5c-0.829 0-1.5-0.671-1.5-1.5s0.671-1.5 1.5-1.5 1.5 0.671 1.5 1.5-0.671 1.5-1.5 1.5z"></path>
</symbol>
<symbol id="icon-arrow-left-outline" viewBox="0 0 24 24">
<path d="M10.928 21c-0.801 0-1.555-0.312-2.121-0.879l-7.121-7.121 7.121-7.121c1.133-1.134 3.109-1.134 4.242 0 0.566 0.564 0.879 1.317 0.879 2.119 0 0.746-0.27 1.451-0.764 2.002h4.836c1.654 0 3 1.346 3 3s-1.346 3-3 3h-4.836c0.493 0.549 0.764 1.252 0.764 1.998 0.002 0.802-0.312 1.557-0.879 2.124-0.567 0.566-1.32 0.878-2.121 0.878zM4.514 13l5.707 5.707c0.379 0.378 1.035 0.378 1.414 0 0.189-0.189 0.293-0.441 0.293-0.708s-0.104-0.517-0.291-0.705l-3.295-3.294h9.658c0.552 0 1-0.449 1-1s-0.448-1-1-1h-9.658l3.293-3.293c0.189-0.189 0.293-0.441 0.293-0.708s-0.104-0.517-0.292-0.705c-0.381-0.38-1.036-0.379-1.415-0.001l-5.707 5.707z"></path>
</symbol>
<symbol id="icon-home-outline" viewBox="0 0 24 24">
<path d="M22.262 10.468c-3.39-2.854-9.546-8.171-9.607-8.225l-0.655-0.563-0.652 0.563c-0.062 0.053-6.221 5.368-9.66 8.248-0.438 0.394-0.688 0.945-0.688 1.509 0 1.104 0.896 2 2 2h1v6c0 1.104 0.896 2 2 2h12c1.104 0 2-0.896 2-2v-6h1c1.104 0 2-0.896 2-2 0-0.598-0.275-1.161-0.738-1.532zM14 20h-4v-5h4v5zM18 12l0.002 8c-0.002 0-3.002 0-3.002 0v-6h-6v6h-3v-8h-3.001c2.765-2.312 7.315-6.227 9.001-7.68 1.686 1.453 6.234 5.367 9 7.681 0 0-3 0-3-0.001z"></path>
</symbol>
<symbol id="icon-star-outline" viewBox="0 0 24 24">
<path d="M16.855 20.966c-0.224 0-0.443-0.050-0.646-0.146-0.035-0.014-0.069-0.031-0.104-0.051l-4.107-2.343-4.107 2.344c-0.035 0.020-0.070 0.037-0.106 0.053-0.488 0.228-1.085 0.174-1.521-0.143-0.469-0.34-0.701-0.933-0.586-1.509l0.957-4.642c-0.374-0.34-0.962-0.875-1.602-1.457l-1.895-1.725c-0.027-0.025-0.055-0.053-0.078-0.082-0.375-0.396-0.509-0.97-0.34-1.492 0.173-0.524 0.62-0.912 1.16-1.009 0.034-0.008 0.067-0.014 0.102-0.018l4.701-0.521 1.946-4.31c0.017-0.038 0.036-0.075 0.060-0.11 0.262-0.473 0.764-0.771 1.309-0.771 0.543 0 1.044 0.298 1.309 0.77 0.021 0.036 0.041 0.073 0.060 0.112l1.948 4.312 4.701 0.521c0.034 0.003 0.068 0.009 0.104 0.017 0.539 0.1 0.986 0.486 1.158 1.012 0.17 0.521 0.035 1.098-0.34 1.494-0.024 0.026-0.051 0.054-0.078 0.078l-3.498 3.184 0.957 4.632c0.113 0.587-0.118 1.178-0.59 1.519-0.252 0.182-0.556 0.281-0.874 0.281zM8.706 14.402c-0.039 0.182-0.466 2.246-0.845 4.082l3.643-2.077c0.307-0.175 0.684-0.175 0.99 0l3.643 2.075-0.849-4.104c-0.071-0.346 0.045-0.705 0.308-0.942l3.1-2.822-4.168-0.461c-0.351-0.039-0.654-0.26-0.801-0.584l-1.728-3.821-1.726 3.821c-0.146 0.322-0.45 0.543-0.801 0.584l-4.168 0.461 3.1 2.822c0.272 0.246 0.384 0.617 0.302 0.966z"></path>
</symbol>
<symbol id="icon-user-outline" viewBox="0 0 24 24">
<path d="M12 6c1.654 0 3 1.346 3 3s-1.346 3-3 3-3-1.346-3-3 1.346-3 3-3M12 4c-2.764 0-5 2.238-5 5s2.236 5 5 5 5-2.238 5-5-2.236-5-5-5z"></path>
<path d="M12 17c2.021 0 3.301 0.771 3.783 1.445-0.683 0.26-1.969 0.555-3.783 0.555-1.984 0-3.206-0.305-3.818-0.542 0.459-0.715 1.777-1.458 3.818-1.458M12 15c-3.75 0-6 2-6 4 0 1 2.25 2 6 2 3.518 0 6-1 6-2s-2.354-4-6-4z"></path>
</symbol>
<symbol id="icon-user-add-outline" viewBox="0 0 24 24">
<path d="M21 14h-6c-0.553 0-1-0.448-1-1s0.447-1 1-1h6c0.553 0 1 0.448 1 1s-0.447 1-1 1z"></path>
<path d="M18 17c-0.553 0-1-0.448-1-1v-6c0-0.552 0.447-1 1-1s1 0.448 1 1v6c0 0.552-0.447 1-1 1z"></path>
<path d="M9 6c1.654 0 3 1.346 3 3s-1.346 3-3 3-3-1.346-3-3 1.346-3 3-3M9 4c-2.764 0-5 2.238-5 5s2.236 5 5 5 5-2.238 5-5-2.236-5-5-5z"></path>
<path d="M9 17c2.021 0 3.301 0.771 3.783 1.445-0.683 0.26-1.969 0.555-3.783 0.555-1.984 0-3.206-0.305-3.818-0.542 0.459-0.715 1.777-1.458 3.818-1.458M9 15c-3.75 0-6 2-6 4 0 1 2.25 2 6 2 3.518 0 6-1 6-2s-2.354-4-6-4z"></path>
</symbol>
<symbol id="icon-lock-closed-outline" viewBox="0 0 24 24">
<path d="M13.3 17c0 0.718-0.582 1.3-1.3 1.3s-1.3-0.582-1.3-1.3c0-0.718 0.582-1.3 1.3-1.3s1.3 0.582 1.3 1.3z"></path>
<path d="M17 10h-1v-2c0-2.206-1.794-4-4-4s-4 1.794-4 4v2h-1c-1.104 0-2 0.896-2 2v7c0 1.104 0.896 2 2 2h10c1.104 0 2-0.896 2-2v-7c0-1.104-0.896-2-2-2zM10 8c0-1.104 0.896-2 2-2s2 0.896 2 2v3h-4v-3zM17 19h-10v-7h10.003l-0.003 7z"></path>
</symbol>
<symbol id="icon-video-outline" viewBox="0 0 24 24">
<path d="M8 11c0 0.552-0.448 1-1 1s-1-0.448-1-1c0-0.552 0.448-1 1-1s1 0.448 1 1z"></path>
<path d="M21.585 7.188c-0.262-0.188-0.599-0.241-0.901-0.137l-1.707 0.568c-0.188-1.477-1.451-2.62-2.977-2.62h-11c-1.654 0-3 1.347-3 3v6c0 1.653 1.346 3 3 3h3v1.111l0.008 0.090c0.066 0.738 0.381 1.423 0.887 1.928 0.562 0.562 1.311 0.872 2.104 0.872s1.542-0.31 2.104-0.87c0.574-0.577 0.898-1.346 0.896-2.113v-1.017h2c1.524 0 2.789-1.145 2.978-2.62l1.707 0.568c0.303 0.104 0.64 0.051 0.9-0.138 0.262-0.188 0.415-0.49 0.415-0.812v-6c0.001-0.318-0.153-0.621-0.414-0.81zM12 18.023c0.001 0.248-0.119 0.5-0.309 0.689s-0.441 0.286-0.692 0.286c-0.25 0-0.501-0.097-0.69-0.286-0.19-0.189-0.285-0.441-0.309-0.691v-2.021h2v2.023zM17 14c0 0.552-0.448 1-1 1h-11c-0.552 0-1-0.448-1-1v-6c0-0.552 0.448-1 1-1h11c0.552 0 1 0.448 1 1v6zM20 12.611c0 0-1.895-0.605-2-0.605v-2.012c0.105 0 2-0.605 2-0.605v3.222z"></path>
</symbol>
<symbol id="icon-key-outline" viewBox="0 0 24 24">
<path d="M10 21h-6v-4.414l3.783-3.783c-0.187-0.587-0.283-1.192-0.283-1.803 0-3.309 2.691-6 6-6s6 2.691 6 6-2.691 6-6 6h-1.5v2h-2v2zM6 19h2v-2h2v-2h3.5c2.206 0 4-1.794 4-4s-1.794-4-4-4-4 1.794-4 4c0 0.559 0.121 1.109 0.359 1.639l0.285 0.631-4.144 4.144v1.586z"></path>
<path d="M13.5 9.998c0.551 0 1 0.449 1 1.002 0 0.552-0.449 1-1 1s-1-0.448-1-1c0-0.553 0.449-1.002 1-1.002M13.5 8.998c-1.104 0-2 0.896-2 2.002 0 1.104 0.896 2 2 2 1.105 0 2-0.896 2-2 0-1.105-0.895-2.002-2-2.002z"></path>
</symbol>
<symbol id="icon-cog-outline" viewBox="0 0 24 24">
<path d="M13 5l0.855 3.42 3.389-0.971 1.501 2.6-2.535 2.449 2.535 2.451-1.5 2.6-3.39-0.971-0.855 3.422h-3l-0.855-3.422-3.39 0.971-1.501-2.6 2.535-2.451-2.534-2.449 1.5-2.6 3.39 0.971 0.855-3.42h3M13 3h-3c-0.918 0-1.718 0.625-1.939 1.516l-0.354 1.412-1.4-0.4c-0.184-0.053-0.369-0.078-0.552-0.078-0.7 0-1.368 0.37-1.731 1l-1.5 2.6c-0.459 0.796-0.317 1.802 0.342 2.438l1.047 1.011-1.048 1.015c-0.66 0.637-0.802 1.643-0.343 2.438l1.502 2.6c0.363 0.631 1.031 1 1.731 1 0.183 0 0.368-0.025 0.552-0.076l1.399-0.401 0.354 1.415c0.222 0.885 1.022 1.51 1.94 1.51h3c0.918 0 1.718-0.625 1.939-1.516l0.354-1.414 1.399 0.4c0.184 0.053 0.369 0.077 0.552 0.077 0.7 0 1.368-0.37 1.731-1l1.5-2.6c0.459-0.796 0.317-1.8-0.342-2.438l-1.047-1.013 1.047-1.013c0.66-0.637 0.801-1.644 0.342-2.438l-1.5-2.6c-0.365-0.631-1.031-1-1.732-1-0.184 0-0.368 0.025-0.551 0.076l-1.4 0.401-0.354-1.413c-0.22-0.884-1.020-1.509-1.938-1.509z"></path>
<path d="M11.5 10.5c1.104 0 2 0.895 2 2s-0.896 2-2 2-2-0.896-2-2c0-1.105 0.896-2 2-2M11.5 9.5c-1.654 0-3 1.346-3 3s1.346 3 3 3 3-1.346 3-3-1.346-3-3-3z"></path>
</symbol>
<symbol id="icon-thumbs-up" viewBox="0 0 24 24">
<path d="M19.57 8.676c-0.391-0.144-2.512-0.406-3.883-0.56 0.215-1.255 0.313-2.405 0.313-3.616 0-1.379-1.122-2.5-2.5-2.5s-2.5 1.121-2.5 2.5c0 1.875-0.666 2.738-1.616 3.699-0.548-0.722-1.407-1.199-2.384-1.199-1.654 0-3 1.346-3 3v6c0 1.654 1.346 3 3 3 0.755 0 1.438-0.29 1.965-0.752 0.064 0.062 0.117 0.141 0.188 0.193 0.96 0.736 3.667 1.559 5.848 1.559 1.879 0 2.608-0.293 3.253-0.553 0.104-0.041 0.207-0.084 0.316-0.123 0.834-0.305 1.576-1.227 1.736-2.2l0.666-5.974c0.173-1.037-0.443-2.125-1.402-2.474zM7 17c-0.551 0-1-0.448-1-1v-6c0-0.552 0.449-1 1-1s1 0.448 1 1v6c0 0.552-0.449 1-1 1zM18.327 16.85c-0.037 0.224-0.292 0.541-0.443 0.596-0.131 0.049-0.254 0.099-0.376 0.146-0.545 0.219-1.016 0.408-2.508 0.408-1.914 0-4.118-0.753-4.632-1.146-0.158-0.12-0.368-0.564-0.368-0.854v-4.98c0.003-0.047 0.051-0.656 0.707-1.312 0.913-0.914 2.293-2.294 2.293-5.208 0-0.275 0.225-0.5 0.5-0.5s0.5 0.225 0.5 0.5c0 1.407-0.146 2.73-0.479 4.293l-0.297 1.396 1.321-0.188c0.603 0.050 3.933 0.447 4.334 0.55 0.058 0.030 0.132 0.183 0.111 0.323l-0.663 5.976z"></path>
</symbol>
<symbol id="icon-sort-numerically-outline" viewBox="0 0 24 24">
<path d="M23.292 12.134c0.138-0.445 0.208-0.91 0.208-1.384 0-2.619-2.131-4.75-4.75-4.75-1.396 0-2.685 0.61-3.573 1.632-0.021-0.021-0.035-0.046-0.056-0.067-0.973-0.974-2.349-1.533-3.776-1.533-1.422 0-2.794 0.556-3.77 1.525-0.264-0.431-0.644-0.813-1.122-1.108-0.474-0.294-1.032-0.449-1.613-0.449-0.482 0-0.955 0.109-1.369 0.316l-1.406 0.747c-1.442 0.721-2.051 2.526-1.313 4.002 0.272 0.543 0.714 0.982 1.248 1.272v4.663c0 1.654 1.346 3 3 3 0.766 0 1.458-0.297 1.989-0.771 0.54 0.487 1.25 0.771 2.011 0.771h5c0.778 0 1.479-0.305 2.010-0.795 0.796 0.5 1.731 0.795 2.74 0.795 2.895 0 5.25-2.355 5.25-5.25 0-0.922-0.25-1.825-0.708-2.616zM6 17c0 0.552-0.448 1-1 1s-1-0.448-1-1v-6.382c-0.144 0.072-0.306 0.106-0.471 0.106-0.401 0-0.813-0.203-0.988-0.553-0.247-0.494-0.031-1.095 0.463-1.342l1.361-0.724c0.141-0.070 0.307-0.105 0.475-0.105 0.199 0 0.4 0.050 0.561 0.149 0.294 0.183 0.599 0.504 0.599 0.851v8zM14 18h-5c-0.404 0-0.769-0.244-0.924-0.617-0.155-0.374-0.069-0.804 0.217-1.090l4-4c0.254-0.254 0.394-0.591 0.394-0.95s-0.14-0.695-0.394-0.949-0.601-0.381-0.949-0.381-0.696 0.127-0.952 0.382c-0.252 0.252-0.392 0.589-0.392 0.948 0 0.552-0.448 1-1 1s-1-0.448-1-1c0-0.894 0.348-1.733 0.98-2.364s1.498-0.947 2.364-0.947 1.731 0.316 2.363 0.948c0.632 0.631 0.979 1.471 0.979 2.363 0 0.893-0.348 1.733-0.979 2.364l-2.293 2.293h2.586c0.552 0 1 0.448 1 1s-0.448 1-1 1zM18.75 18c-1.792 0-3.25-1.458-3.25-3.25 0-0.552 0.448-1 1-1s1 0.448 1 1c0 0.689 0.561 1.25 1.25 1.25s1.25-0.561 1.25-1.25-0.561-1.25-1.25-1.25c-0.552 0-1-0.448-1-1s0.448-1 1-1c0.414 0 0.75-0.336 0.75-0.75s-0.336-0.75-0.75-0.75c-0.281 0-0.536 0.155-0.665 0.404-0.178 0.343-0.527 0.54-0.889 0.54-0.155 0-0.312-0.036-0.459-0.112-0.491-0.254-0.682-0.857-0.428-1.348 0.475-0.915 1.41-1.484 2.441-1.484 1.516 0 2.75 1.233 2.75 2.75 0 0.611-0.207 1.17-0.545 1.627 0.639 0.594 1.045 1.434 1.045 2.373 0 1.792-1.458 3.25-3.25 3.25z"></path>
</symbol>
<symbol id="icon-business-card" viewBox="0 0 24 24">
<path d="M20 20h-16c-1.654 0-3-1.346-3-3v-10c0-1.654 1.346-3 3-3h16c1.654 0 3 1.346 3 3v10c0 1.654-1.346 3-3 3zM4 6c-0.551 0-1 0.449-1 1v10c0 0.551 0.449 1 1 1h16c0.551 0 1-0.449 1-1v-10c0-0.551-0.449-1-1-1h-16z"></path>
<path d="M10 15h-4c-0.553 0-1-0.448-1-1s0.447-1 1-1h4c0.553 0 1 0.448 1 1s-0.447 1-1 1z"></path>
<path d="M10 11h-4c-0.553 0-1-0.448-1-1s0.447-1 1-1h4c0.553 0 1 0.448 1 1s-0.447 1-1 1z"></path>
<path d="M18 10.5c0 1.105-0.895 2-2 2s-2-0.895-2-2c0-1.105 0.895-2 2-2s2 0.895 2 2z"></path>
<path d="M16 13.356c-1.562 0-2.5 0.715-2.5 1.429 0 0.357 0.938 0.715 2.5 0.715 1.466 0 2.5-0.357 2.5-0.715 0-0.714-0.98-1.429-2.5-1.429z"></path>
</symbol>
<symbol id="icon-bell" viewBox="0 0 24 24">
<path d="M19.715 17.301c-0.017-0.018-1.717-1.854-1.73-6.32-0.009-2.607-1.69-4.824-4.019-5.641 0.018-0.111 0.034-0.223 0.034-0.34 0-1.103-0.896-2-2-2s-2 0.897-2 2c0 0.116 0.016 0.228 0.034 0.338-2.336 0.816-4.019 3.036-4.019 5.646 0 4.462-1.711 6.296-1.721 6.306-0.287 0.286-0.374 0.716-0.22 1.091s0.521 0.619 0.926 0.619h3.143c0.447 1.72 1.999 3 3.857 3s3.41-1.28 3.857-3h3.143c0.4 0 0.758-0.243 0.915-0.61s0.076-0.799-0.2-1.089zM12 7c2.189 0 3.978 1.789 3.984 3.987 0.002 0.728 0.046 1.396 0.118 2.013h-8.2c0.071-0.617 0.113-1.286 0.113-2.016 0.001-2.196 1.788-3.984 3.985-3.984zM12 20c-0.737 0-1.375-0.405-1.722-1h3.443c-0.346 0.595-0.984 1-1.721 1zM6.814 17c0.352-0.736 0.705-1.731 0.938-3h8.502c0.234 1.269 0.588 2.264 0.938 3h-10.378z"></path>
</symbol>
<symbol id="icon-power-outline" viewBox="0 0 24 24">
<path d="M17.51 6.062c-0.814-0.815-1.98-1.050-3.010-0.729v-0.333c0-1.656-1.344-3-3-3s-3 1.344-3 3v0.332c-1.029-0.319-2.195-0.085-3.010 0.73-1.605 1.606-2.49 3.741-2.49 6.011s0.885 4.405 2.49 6.011c1.604 1.605 3.739 2.489 6.010 2.489s4.405-0.884 6.010-2.489c1.605-1.605 2.49-3.74 2.49-6.011s-0.885-4.405-2.49-6.011zM10.5 5c0-0.552 0.447-1 1-1s1 0.448 1 1v5c0 0.552-0.447 1-1 1s-1-0.448-1-1v-5zM9.5 8.803v1.197c0 1.104 0.896 2 2 2s2-0.896 2-2v-1.182c0.095 0.284 0.248 0.554 0.475 0.78 0.661 0.661 1.025 1.54 1.025 2.475s-0.364 1.814-1.025 2.476c-1.322 1.321-3.627 1.321-4.949 0-0.662-0.662-1.026-1.541-1.026-2.476s0.364-1.814 1.025-2.476c0.231-0.23 0.383-0.504 0.475-0.794zM16.096 16.67c-1.228 1.228-2.859 1.903-4.596 1.903s-3.368-0.676-4.596-1.903c-1.227-1.228-1.904-2.86-1.904-4.597s0.677-3.369 1.904-4.597c0.391-0.391 1.023-0.391 1.414 0s0.391 1.023 0 1.414c-0.85 0.851-1.318 1.981-1.318 3.183s0.468 2.333 1.318 3.183c0.85 0.85 1.979 1.317 3.182 1.317s2.332-0.468 3.182-1.317c0.851-0.85 1.318-1.98 1.318-3.183s-0.468-2.333-1.318-3.183c-0.391-0.391-0.391-1.023 0-1.414s1.023-0.391 1.414 0c1.227 1.229 1.904 2.861 1.904 4.597s-0.677 3.369-1.904 4.597z"></path>
</symbol>
<symbol id="icon-notes-outline" viewBox="0 0 24 24">
<path d="M18.324 4.367c-0.368-0.324-0.84-0.5-1.324-0.5-0.082 0-0.165 0.005-0.248 0.016l-9 1.25c-1.001 0.125-1.752 0.975-1.752 1.984v6.111c-1.746 0.551-3 2.034-3 3.772 0 2.205 2.019 4 4.5 4 1.695 0 3.169-0.842 3.937-2.078 0.803 0.667 1.879 1.078 3.063 1.078 2.481 0 4.5-1.795 4.5-4v-10.133c0-0.574-0.246-1.119-0.676-1.5zM11 16v-4.256l3-0.45v1.737c-1.693 0.208-3 1.46-3 2.969zM17 16c0 1.104-1.119 2-2.5 2s-2.5-0.896-2.5-2 1.119-2 2.5-2c0.172 0 0.338 0.014 0.5 0.041v-3.908l-5 0.75v6.117c0 1.104-1.119 2-2.5 2s-2.5-0.896-2.5-2 1.119-2 2.5-2c0.172 0 0.338 0.014 0.5 0.041v-7.924l9-1.25v10.133z"></path>
</symbol>
<symbol id="icon-lightbulb" viewBox="0 0 24 24">
<path d="M12.5 5.5c-0.276 0-0.5 0.224-0.5 0.5s0.224 0.5 0.5 0.5c1.083 0 1.964 0.881 1.964 1.964 0 0.276 0.224 0.5 0.5 0.5s0.5-0.224 0.5-0.5c0-1.634-1.33-2.964-2.964-2.964z"></path>
<path d="M12.5 1c-4.136 0-7.5 3.364-7.5 7.5 0 1.486 0.44 2.922 1.274 4.165 0.023 0.047 0.049 0.092 0.080 0.135 1.825 2.606 2.146 3.43 2.146 4.2v3c0 0.552 0.448 1 1 1h2c0 0.26 0.11 0.52 0.29 0.71 0.19 0.18 0.45 0.29 0.71 0.29s0.52-0.11 0.71-0.29c0.18-0.19 0.29-0.45 0.29-0.71h2c0.552 0 1-0.448 1-1v-3c0-0.782 0.319-1.61 2.132-4.199 0.895-1.275 1.368-2.762 1.368-4.301 0-4.136-3.364-7.5-7.5-7.5zM14.5 19h-4v-1h4v1zM16.995 11.653c-1.466 2.093-2.143 3.289-2.385 4.347h-1.11v-2c0-0.552-0.448-1-1-1s-1 0.448-1 1v2h-1.113c-0.24-1.030-0.898-2.2-2.306-4.22-0.022-0.044-0.048-0.087-0.077-0.129-0.657-0.934-1.004-2.024-1.004-3.151 0-3.033 2.467-5.5 5.5-5.5s5.5 2.467 5.5 5.5c0 1.126-0.347 2.216-1.005 3.153z"></path>
</symbol>
<symbol id="icon-phone-outline" viewBox="0 0 24 24">
<path d="M19.502 3.672l-1.795-1.793c-0.566-0.567-1.32-0.879-2.121-0.879s-1.555 0.312-2.121 0.879l-1.586 1.586c-1.17 1.17-1.17 3.072 0 4.242l1.379 1.379-4.172 4.172-1.379-1.379c-0.566-0.567-1.32-0.879-2.121-0.879s-1.555 0.312-2.121 0.879l-1.586 1.586c-1.17 1.17-1.17 3.072 0 4.242l1.794 1.793c0.465 0.465 1.796 1.545 4.116 1.545 2.764 0 5.694-1.529 8.711-4.545 6.245-6.246 4.825-11.002 3.002-12.828zM13.293 4.879l1.586-1.586c0.195-0.195 0.451-0.293 0.707-0.293s0.512 0.098 0.707 0.293l1.083 1.082-3.001 3-1.082-1.082c-0.391-0.391-0.391-1.023 0-1.414zM3.293 16.293c-0.391-0.391-0.391-1.023 0-1.414l1.586-1.586c0.195-0.195 0.451-0.293 0.707-0.293s0.512 0.098 0.707 0.293l1.082 1.082-2.999 3-1.083-1.082zM15.086 15.086c-3.083 3.082-5.551 3.959-7.297 3.959-1.349 0-2.267-0.523-2.702-0.959-0.004-0.004 2.995-3.004 2.995-3.004l0.297 0.297c0.195 0.195 0.451 0.293 0.707 0.293s0.512-0.098 0.707-0.293l5.586-5.586c0.391-0.391 0.391-1.023 0-1.414l-0.297-0.297 3.001-3c1.003 1.004 2.467 4.539-2.997 10.004z"></path>
</symbol>
<symbol id="icon-microphone-outline" viewBox="0 0 24 24">
<path d="M12 16c-2.206 0-4-1.795-4-4v-6c0-2.205 1.794-4 4-4s4 1.795 4 4v6c0 2.205-1.794 4-4 4zM12 4c-1.103 0-2 0.896-2 2v6c0 1.104 0.897 2 2 2s2-0.896 2-2v-6c0-1.104-0.897-2-2-2z"></path>
<path d="M19 12v-2c0-0.553-0.447-1-1-1s-1 0.447-1 1v2c0 2.757-2.243 5-5 5s-5-2.243-5-5v-2c0-0.553-0.447-1-1-1s-1 0.447-1 1v2c0 3.52 2.613 6.432 6 6.92v1.080h-3c-0.553 0-1 0.447-1 1s0.447 1 1 1h8c0.553 0 1-0.447 1-1s-0.447-1-1-1h-3v-1.080c3.387-0.488 6-3.4 6-6.92z"></path>
</symbol>
<symbol id="icon-beer" viewBox="0 0 24 24">
<path d="M10 16.5c0 0.275-0.225 0.5-0.5 0.5s-0.5-0.225-0.5-0.5v-6c0-0.275 0.225-0.5 0.5-0.5s0.5 0.225 0.5 0.5v6z"></path>
<path d="M12 16.5c0 0.275-0.225 0.5-0.5 0.5s-0.5-0.225-0.5-0.5v-6c0-0.275 0.225-0.5 0.5-0.5s0.5 0.225 0.5 0.5v6z"></path>
<path d="M14 16.5c0 0.275-0.225 0.5-0.5 0.5s-0.5-0.225-0.5-0.5v-6c0-0.275 0.225-0.5 0.5-0.5s0.5 0.225 0.5 0.5v6z"></path>
<path d="M18.5 6h-0.5v-1c0-1.104-0.896-2-2-2h-9c-1.104 0-2 0.896-2 2v13c0 1.656 1.344 3 3 3h7c1.656 0 3-1.344 3-3h0.5c1.93 0 3.5-1.57 3.5-3.5v-5c0-1.93-1.57-3.5-3.5-3.5zM7 5h9v1h-4.444l-0.118 0.332c-0.164 0.458-0.663 0.73-1.117 0.648l-0.348-0.058-0.173 0.307c-0.267 0.475-0.765 0.771-1.3 0.771-0.827 0-1.5-0.673-1.5-1.5v-1.5zM16 18c0 0.552-0.448 1-1 1h-7c-0.552 0-1-0.448-1-1v-9.51c0.419 0.317 0.936 0.51 1.5 0.51 0.784 0 1.521-0.376 1.989-1 0.728 0 1.383-0.391 1.736-1h3.775v11zM20 14.5c0 0.827-0.673 1.5-1.5 1.5h-1.5v-8h1.5c0.827 0 1.5 0.673 1.5 1.5v5z"></path>
</symbol>
<symbol id="icon-volume-up" viewBox="0 0 24 24">
<path d="M16.706 10.292c-0.389-0.389-1.023-0.391-1.414 0.002-0.39 0.391-0.39 1.023 0.002 1.414 0.345 0.345 0.535 0.803 0.535 1.291s-0.19 0.948-0.536 1.294c-0.391 0.39-0.391 1.023 0 1.414 0.195 0.195 0.451 0.293 0.707 0.293s0.512-0.098 0.707-0.293c0.724-0.723 1.122-1.685 1.122-2.708s-0.398-1.984-1.123-2.707z"></path>
<path d="M18.706 8.292c-0.391-0.389-1.023-0.39-1.414 0.002-0.39 0.391-0.39 1.024 0.002 1.414 0.879 0.877 1.363 2.044 1.364 3.287 0.001 1.246-0.484 2.417-1.365 3.298-0.391 0.391-0.391 1.023 0 1.414 0.195 0.195 0.451 0.293 0.707 0.293s0.512-0.098 0.707-0.293c1.259-1.259 1.952-2.933 1.951-4.713-0.001-1.777-0.694-3.447-1.952-4.702z"></path>
<path d="M20.706 6.292c-0.391-0.389-1.023-0.39-1.414 0.002-0.39 0.391-0.39 1.024 0.002 1.414 1.412 1.409 2.191 3.285 2.192 5.284 0.002 2.002-0.777 3.885-2.193 5.301-0.391 0.391-0.391 1.023 0 1.414 0.195 0.195 0.451 0.293 0.707 0.293s0.512-0.098 0.707-0.293c1.794-1.794 2.781-4.18 2.779-6.717-0.001-2.533-0.989-4.912-2.78-6.698z"></path>
<path d="M12.138 5.824c-0.449 0-0.905 0.152-1.356 0.453l-2.673 1.782c-0.752 0.502-2.205 0.941-3.109 0.941-1.654 0-3 1.346-3 3v2c0 1.654 1.346 3 3 3 0.904 0 2.357 0.439 3.109 0.941l2.672 1.781c0.451 0.301 0.907 0.453 1.356 0.453 0.898 0.001 1.863-0.68 1.863-2.175v-10c0-1.495-0.965-2.176-1.862-2.176zM5 15c-0.552 0-1-0.448-1-1v-2c0-0.552 0.448-1 1-1 1.211 0 2.907-0.495 4-1.146v6.293c-1.093-0.652-2.789-1.147-4-1.147zM12 18c0 0.046-0.002 0.086-0.006 0.12-0.030-0.016-0.065-0.036-0.104-0.062l-1.89-1.26v-7.596l1.891-1.261c0.038-0.025 0.073-0.046 0.104-0.062 0.003 0.035 0.005 0.075 0.005 0.121v10z"></path>
</symbol>
<symbol id="icon-messages" viewBox="0 0 24 24">
<path d="M21 7h-3c0-1.65-1.35-3-3-3h-12c-1.65 0-3 1.35-3 3v7c0 1.65 1.35 3 3 3v3l3-3c0 1.65 1.35 3 3 3h8l3 3v-3h1c1.65 0 3-1.35 3-3v-7c0-1.65-1.35-3-3-3zM3 15c-0.542 0-1-0.458-1-1v-7c0-0.542 0.458-1 1-1h12c0.542 0 1 0.458 1 1v1h-6.5c-1.379 0-2.5 1.121-2.5 2.5v4.5h-4zM22 17c0 0.542-0.458 1-1 1h-12c-0.542 0-1-0.458-1-1v-6.5c0-0.827 0.673-1.5 1.5-1.5h11.5c0.542 0 1 0.458 1 1v7z"></path>
</symbol>
</defs>
</svg>
